<mxfile host="app.diagrams.net" modified="2023-02-13T07:03:46.277Z" agent="5.0 (Windows NT 10.0; Win64; x64) AppleWebKit/537.36 (KHTML, like Gecko) Chrome/109.0.0.0 Safari/537.36" etag="tepZ5n-g49mYUjfAo8XY" version="20.8.20" type="github">
  <diagram id="R2lEEEUBdFMjLlhIrx00" name="Page-1">
    <mxGraphModel dx="955" dy="499" grid="1" gridSize="10" guides="1" tooltips="1" connect="1" arrows="1" fold="1" page="1" pageScale="1" pageWidth="850" pageHeight="1100" math="0" shadow="0" extFonts="Permanent Marker^https://fonts.googleapis.com/css?family=Permanent+Marker">
      <root>
        <mxCell id="0" />
        <mxCell id="1" parent="0" />
        <mxCell id="1Xf7fbBkaFYpPVQfP7VX-22" style="edgeStyle=none;rounded=0;orthogonalLoop=1;jettySize=auto;html=1;exitX=0;exitY=0;exitDx=0;exitDy=0;" edge="1" parent="1">
          <mxGeometry relative="1" as="geometry">
            <mxPoint x="154.64466094067257" y="109.99786437626905" as="sourcePoint" />
            <mxPoint x="154.64466094067257" y="109.99786437626905" as="targetPoint" />
          </mxGeometry>
        </mxCell>
        <mxCell id="1Xf7fbBkaFYpPVQfP7VX-94" style="edgeStyle=orthogonalEdgeStyle;rounded=0;orthogonalLoop=1;jettySize=auto;html=1;exitX=1;exitY=0.5;exitDx=0;exitDy=0;entryX=0;entryY=0.5;entryDx=0;entryDy=0;" edge="1" parent="1" source="1Xf7fbBkaFYpPVQfP7VX-29" target="1Xf7fbBkaFYpPVQfP7VX-32">
          <mxGeometry relative="1" as="geometry" />
        </mxCell>
        <mxCell id="1Xf7fbBkaFYpPVQfP7VX-95" style="edgeStyle=orthogonalEdgeStyle;rounded=0;orthogonalLoop=1;jettySize=auto;html=1;exitX=1;exitY=0.5;exitDx=0;exitDy=0;entryX=0;entryY=0.5;entryDx=0;entryDy=0;" edge="1" parent="1" source="1Xf7fbBkaFYpPVQfP7VX-29" target="1Xf7fbBkaFYpPVQfP7VX-30">
          <mxGeometry relative="1" as="geometry" />
        </mxCell>
        <mxCell id="1Xf7fbBkaFYpPVQfP7VX-29" value="User" style="whiteSpace=wrap;html=1;align=center;fillColor=#f0a30a;strokeColor=#BD7000;fontColor=#000000;" vertex="1" parent="1">
          <mxGeometry x="20" y="184.14" width="100" height="40" as="geometry" />
        </mxCell>
        <mxCell id="1Xf7fbBkaFYpPVQfP7VX-148" style="edgeStyle=orthogonalEdgeStyle;rounded=0;orthogonalLoop=1;jettySize=auto;html=1;exitX=1;exitY=0.5;exitDx=0;exitDy=0;entryX=0;entryY=0.5;entryDx=0;entryDy=0;" edge="1" parent="1" source="1Xf7fbBkaFYpPVQfP7VX-30" target="1Xf7fbBkaFYpPVQfP7VX-31">
          <mxGeometry relative="1" as="geometry" />
        </mxCell>
        <mxCell id="1Xf7fbBkaFYpPVQfP7VX-30" value="Logs in" style="shape=rhombus;perimeter=rhombusPerimeter;whiteSpace=wrap;html=1;align=center;fillColor=#008a00;strokeColor=#005700;fontColor=#ffffff;" vertex="1" parent="1">
          <mxGeometry x="170" y="200" width="120" height="60" as="geometry" />
        </mxCell>
        <mxCell id="1Xf7fbBkaFYpPVQfP7VX-174" style="edgeStyle=orthogonalEdgeStyle;rounded=0;orthogonalLoop=1;jettySize=auto;html=1;exitX=0.25;exitY=1;exitDx=0;exitDy=0;entryX=0.5;entryY=0;entryDx=0;entryDy=0;" edge="1" parent="1" source="1Xf7fbBkaFYpPVQfP7VX-31" target="1Xf7fbBkaFYpPVQfP7VX-104">
          <mxGeometry relative="1" as="geometry">
            <Array as="points">
              <mxPoint x="450" y="380" />
              <mxPoint x="233" y="380" />
            </Array>
          </mxGeometry>
        </mxCell>
        <mxCell id="1Xf7fbBkaFYpPVQfP7VX-175" style="edgeStyle=orthogonalEdgeStyle;rounded=0;orthogonalLoop=1;jettySize=auto;html=1;exitX=0.75;exitY=1;exitDx=0;exitDy=0;entryX=0.5;entryY=0;entryDx=0;entryDy=0;" edge="1" parent="1" source="1Xf7fbBkaFYpPVQfP7VX-31" target="1Xf7fbBkaFYpPVQfP7VX-73">
          <mxGeometry relative="1" as="geometry">
            <Array as="points">
              <mxPoint x="500" y="380" />
              <mxPoint x="535" y="380" />
            </Array>
          </mxGeometry>
        </mxCell>
        <mxCell id="1Xf7fbBkaFYpPVQfP7VX-31" value="Account" style="whiteSpace=wrap;html=1;align=center;fillColor=#f0a30a;strokeColor=#BD7000;fontColor=#000000;" vertex="1" parent="1">
          <mxGeometry x="425" y="160" width="100" height="40" as="geometry" />
        </mxCell>
        <mxCell id="1Xf7fbBkaFYpPVQfP7VX-146" style="edgeStyle=orthogonalEdgeStyle;rounded=0;orthogonalLoop=1;jettySize=auto;html=1;exitX=1;exitY=0.5;exitDx=0;exitDy=0;entryX=0;entryY=0.5;entryDx=0;entryDy=0;" edge="1" parent="1" source="1Xf7fbBkaFYpPVQfP7VX-32" target="1Xf7fbBkaFYpPVQfP7VX-31">
          <mxGeometry relative="1" as="geometry" />
        </mxCell>
        <mxCell id="1Xf7fbBkaFYpPVQfP7VX-32" value="Makes" style="shape=rhombus;perimeter=rhombusPerimeter;whiteSpace=wrap;html=1;align=center;fillColor=#008a00;strokeColor=#005700;fontColor=#ffffff;" vertex="1" parent="1">
          <mxGeometry x="170" y="124.14" width="120" height="60" as="geometry" />
        </mxCell>
        <mxCell id="1Xf7fbBkaFYpPVQfP7VX-34" value="User Table" style="whiteSpace=wrap;html=1;align=center;fillColor=#f0a30a;strokeColor=#BD7000;fontColor=#000000;" vertex="1" parent="1">
          <mxGeometry x="720" y="160" width="100" height="40" as="geometry" />
        </mxCell>
        <mxCell id="1Xf7fbBkaFYpPVQfP7VX-36" value="&lt;span style=&quot;border-bottom: 1px dotted&quot;&gt;FirstName&lt;/span&gt;" style="ellipse;whiteSpace=wrap;html=1;align=center;fillColor=#1ba1e2;strokeColor=#006EAF;fontColor=#ffffff;" vertex="1" parent="1">
          <mxGeometry x="350" y="30" width="100" height="40" as="geometry" />
        </mxCell>
        <mxCell id="1Xf7fbBkaFYpPVQfP7VX-37" value="LastName" style="ellipse;whiteSpace=wrap;html=1;align=center;fillColor=#1ba1e2;strokeColor=#006EAF;fontColor=#ffffff;" vertex="1" parent="1">
          <mxGeometry x="430" y="80" width="100" height="40" as="geometry" />
        </mxCell>
        <mxCell id="1Xf7fbBkaFYpPVQfP7VX-39" value="Email" style="ellipse;whiteSpace=wrap;html=1;align=center;fillColor=#1ba1e2;strokeColor=#006EAF;fontColor=#ffffff;" vertex="1" parent="1">
          <mxGeometry x="280" y="79.99999999999999" width="100" height="40" as="geometry" />
        </mxCell>
        <mxCell id="1Xf7fbBkaFYpPVQfP7VX-40" value="Password" style="ellipse;whiteSpace=wrap;html=1;align=center;fillColor=#1ba1e2;strokeColor=#006EAF;fontColor=#ffffff;" vertex="1" parent="1">
          <mxGeometry x="575" y="80" width="100" height="40" as="geometry" />
        </mxCell>
        <mxCell id="1Xf7fbBkaFYpPVQfP7VX-41" value="Phone" style="ellipse;whiteSpace=wrap;html=1;align=center;fillColor=#1ba1e2;strokeColor=#006EAF;fontColor=#ffffff;" vertex="1" parent="1">
          <mxGeometry x="520" y="29.999999999999986" width="100" height="40" as="geometry" />
        </mxCell>
        <mxCell id="1Xf7fbBkaFYpPVQfP7VX-55" value="Email" style="ellipse;whiteSpace=wrap;html=1;align=center;fillColor=#1ba1e2;strokeColor=#006EAF;fontColor=#ffffff;" vertex="1" parent="1">
          <mxGeometry x="260" y="260" width="110" height="40" as="geometry" />
        </mxCell>
        <mxCell id="1Xf7fbBkaFYpPVQfP7VX-56" value="Password" style="ellipse;whiteSpace=wrap;html=1;align=center;fillColor=#1ba1e2;strokeColor=#006EAF;fontColor=#ffffff;" vertex="1" parent="1">
          <mxGeometry x="90" y="260" width="100" height="40" as="geometry" />
        </mxCell>
        <mxCell id="1Xf7fbBkaFYpPVQfP7VX-60" value="" style="endArrow=none;html=1;rounded=0;entryX=1;entryY=1;entryDx=0;entryDy=0;exitX=0;exitY=0;exitDx=0;exitDy=0;" edge="1" parent="1" source="1Xf7fbBkaFYpPVQfP7VX-31" target="1Xf7fbBkaFYpPVQfP7VX-39">
          <mxGeometry width="50" height="50" relative="1" as="geometry">
            <mxPoint x="390" y="284.14" as="sourcePoint" />
            <mxPoint x="440" y="234.14" as="targetPoint" />
          </mxGeometry>
        </mxCell>
        <mxCell id="1Xf7fbBkaFYpPVQfP7VX-67" value="" style="endArrow=none;html=1;rounded=0;exitX=1;exitY=1;exitDx=0;exitDy=0;entryX=0.252;entryY=0.075;entryDx=0;entryDy=0;entryPerimeter=0;" edge="1" parent="1" source="1Xf7fbBkaFYpPVQfP7VX-31" target="1Xf7fbBkaFYpPVQfP7VX-79">
          <mxGeometry width="50" height="50" relative="1" as="geometry">
            <mxPoint x="430" y="204.14" as="sourcePoint" />
            <mxPoint x="545" y="260.14" as="targetPoint" />
          </mxGeometry>
        </mxCell>
        <mxCell id="1Xf7fbBkaFYpPVQfP7VX-85" style="edgeStyle=orthogonalEdgeStyle;rounded=0;orthogonalLoop=1;jettySize=auto;html=1;exitX=0.5;exitY=1;exitDx=0;exitDy=0;entryX=0.5;entryY=0;entryDx=0;entryDy=0;" edge="1" parent="1" source="1Xf7fbBkaFYpPVQfP7VX-73" target="1Xf7fbBkaFYpPVQfP7VX-76">
          <mxGeometry relative="1" as="geometry" />
        </mxCell>
        <mxCell id="1Xf7fbBkaFYpPVQfP7VX-73" value="Retrieves&lt;br&gt;Updates&lt;br&gt;Deletes" style="shape=rhombus;perimeter=rhombusPerimeter;whiteSpace=wrap;html=1;align=center;fillColor=#008a00;strokeColor=#005700;fontColor=#ffffff;" vertex="1" parent="1">
          <mxGeometry x="472.5" y="410" width="125" height="74.14" as="geometry" />
        </mxCell>
        <mxCell id="1Xf7fbBkaFYpPVQfP7VX-118" style="edgeStyle=orthogonalEdgeStyle;rounded=0;orthogonalLoop=1;jettySize=auto;html=1;exitX=0;exitY=0.5;exitDx=0;exitDy=0;" edge="1" parent="1" source="1Xf7fbBkaFYpPVQfP7VX-76" target="1Xf7fbBkaFYpPVQfP7VX-77">
          <mxGeometry relative="1" as="geometry" />
        </mxCell>
        <mxCell id="1Xf7fbBkaFYpPVQfP7VX-76" value="Contact" style="whiteSpace=wrap;html=1;align=center;fillColor=#f0a30a;strokeColor=#BD7000;fontColor=#000000;" vertex="1" parent="1">
          <mxGeometry x="572.5" y="540" width="100" height="40" as="geometry" />
        </mxCell>
        <mxCell id="1Xf7fbBkaFYpPVQfP7VX-172" style="edgeStyle=orthogonalEdgeStyle;rounded=0;orthogonalLoop=1;jettySize=auto;html=1;exitX=0;exitY=0.5;exitDx=0;exitDy=0;entryX=0.5;entryY=0;entryDx=0;entryDy=0;" edge="1" parent="1" source="1Xf7fbBkaFYpPVQfP7VX-77" target="1Xf7fbBkaFYpPVQfP7VX-171">
          <mxGeometry relative="1" as="geometry" />
        </mxCell>
        <mxCell id="1Xf7fbBkaFYpPVQfP7VX-77" value="Stored in" style="shape=rhombus;perimeter=rhombusPerimeter;whiteSpace=wrap;html=1;align=center;fillColor=#008a00;strokeColor=#005700;fontColor=#ffffff;" vertex="1" parent="1">
          <mxGeometry x="410" y="530" width="120" height="60" as="geometry" />
        </mxCell>
        <mxCell id="1Xf7fbBkaFYpPVQfP7VX-79" value="ID" style="ellipse;whiteSpace=wrap;html=1;align=center;fontStyle=4;fillColor=#1ba1e2;strokeColor=#006EAF;fontColor=#ffffff;" vertex="1" parent="1">
          <mxGeometry x="620" y="260" width="100" height="40" as="geometry" />
        </mxCell>
        <mxCell id="1Xf7fbBkaFYpPVQfP7VX-82" value="" style="endArrow=none;html=1;rounded=0;exitX=1;exitY=1;exitDx=0;exitDy=0;entryX=0.5;entryY=0;entryDx=0;entryDy=0;" edge="1" parent="1" source="1Xf7fbBkaFYpPVQfP7VX-30" target="1Xf7fbBkaFYpPVQfP7VX-55">
          <mxGeometry relative="1" as="geometry">
            <mxPoint x="420" y="290" as="sourcePoint" />
            <mxPoint x="580" y="290" as="targetPoint" />
          </mxGeometry>
        </mxCell>
        <mxCell id="1Xf7fbBkaFYpPVQfP7VX-83" value="" style="endArrow=none;html=1;rounded=0;exitX=0;exitY=1;exitDx=0;exitDy=0;entryX=0.5;entryY=0;entryDx=0;entryDy=0;" edge="1" parent="1" source="1Xf7fbBkaFYpPVQfP7VX-30" target="1Xf7fbBkaFYpPVQfP7VX-56">
          <mxGeometry relative="1" as="geometry">
            <mxPoint x="420" y="290" as="sourcePoint" />
            <mxPoint x="580" y="290" as="targetPoint" />
          </mxGeometry>
        </mxCell>
        <mxCell id="1Xf7fbBkaFYpPVQfP7VX-125" style="edgeStyle=orthogonalEdgeStyle;rounded=0;orthogonalLoop=1;jettySize=auto;html=1;exitX=0.5;exitY=0;exitDx=0;exitDy=0;entryX=0.5;entryY=1;entryDx=0;entryDy=0;" edge="1" parent="1" source="1Xf7fbBkaFYpPVQfP7VX-86" target="1Xf7fbBkaFYpPVQfP7VX-79">
          <mxGeometry relative="1" as="geometry" />
        </mxCell>
        <mxCell id="1Xf7fbBkaFYpPVQfP7VX-86" value="Inherits" style="shape=rhombus;double=1;perimeter=rhombusPerimeter;whiteSpace=wrap;html=1;align=center;fillColor=#60a917;strokeColor=#2D7600;fontColor=#ffffff;" vertex="1" parent="1">
          <mxGeometry x="615" y="350" width="110" height="60" as="geometry" />
        </mxCell>
        <mxCell id="1Xf7fbBkaFYpPVQfP7VX-126" style="edgeStyle=orthogonalEdgeStyle;rounded=0;orthogonalLoop=1;jettySize=auto;html=1;exitX=0.5;exitY=0;exitDx=0;exitDy=0;entryX=0.5;entryY=1;entryDx=0;entryDy=0;" edge="1" parent="1" source="1Xf7fbBkaFYpPVQfP7VX-91" target="1Xf7fbBkaFYpPVQfP7VX-86">
          <mxGeometry relative="1" as="geometry" />
        </mxCell>
        <mxCell id="1Xf7fbBkaFYpPVQfP7VX-91" value="UserID" style="ellipse;whiteSpace=wrap;html=1;align=center;fontStyle=4;fillColor=#1ba1e2;strokeColor=#006EAF;fontColor=#ffffff;" vertex="1" parent="1">
          <mxGeometry x="730" y="470" width="100" height="40" as="geometry" />
        </mxCell>
        <mxCell id="1Xf7fbBkaFYpPVQfP7VX-98" value="" style="edgeStyle=none;rounded=0;orthogonalLoop=1;jettySize=auto;html=1;exitX=1;exitY=0.5;exitDx=0;exitDy=0;entryX=0;entryY=0.5;entryDx=0;entryDy=0;endArrow=none;" edge="1" parent="1" source="1Xf7fbBkaFYpPVQfP7VX-31" target="1Xf7fbBkaFYpPVQfP7VX-33">
          <mxGeometry relative="1" as="geometry">
            <mxPoint x="520" y="204" as="sourcePoint" />
            <mxPoint x="670" y="204.14" as="targetPoint" />
          </mxGeometry>
        </mxCell>
        <mxCell id="1Xf7fbBkaFYpPVQfP7VX-99" style="edgeStyle=orthogonalEdgeStyle;rounded=0;orthogonalLoop=1;jettySize=auto;html=1;exitX=1;exitY=0.5;exitDx=0;exitDy=0;entryX=0;entryY=0.5;entryDx=0;entryDy=0;" edge="1" parent="1" source="1Xf7fbBkaFYpPVQfP7VX-33" target="1Xf7fbBkaFYpPVQfP7VX-34">
          <mxGeometry relative="1" as="geometry" />
        </mxCell>
        <mxCell id="1Xf7fbBkaFYpPVQfP7VX-33" value="Stored in" style="shape=rhombus;perimeter=rhombusPerimeter;whiteSpace=wrap;html=1;align=center;fillColor=#008a00;strokeColor=#005700;fontColor=#ffffff;" vertex="1" parent="1">
          <mxGeometry x="570" y="150" width="120" height="60" as="geometry" />
        </mxCell>
        <mxCell id="1Xf7fbBkaFYpPVQfP7VX-173" style="edgeStyle=orthogonalEdgeStyle;rounded=0;orthogonalLoop=1;jettySize=auto;html=1;exitX=1;exitY=0.5;exitDx=0;exitDy=0;entryX=0.5;entryY=0;entryDx=0;entryDy=0;" edge="1" parent="1" source="1Xf7fbBkaFYpPVQfP7VX-104" target="1Xf7fbBkaFYpPVQfP7VX-171">
          <mxGeometry relative="1" as="geometry" />
        </mxCell>
        <mxCell id="1Xf7fbBkaFYpPVQfP7VX-104" value="Searches" style="shape=rhombus;perimeter=rhombusPerimeter;whiteSpace=wrap;html=1;align=center;fillColor=#008a00;strokeColor=#005700;fontColor=#ffffff;" vertex="1" parent="1">
          <mxGeometry x="170" y="522.93" width="125" height="74.14" as="geometry" />
        </mxCell>
        <mxCell id="1Xf7fbBkaFYpPVQfP7VX-110" value="FirstName" style="ellipse;whiteSpace=wrap;html=1;align=center;fillColor=#1ba1e2;fontColor=#ffffff;strokeColor=#006EAF;" vertex="1" parent="1">
          <mxGeometry x="472.5" y="670" width="100" height="40" as="geometry" />
        </mxCell>
        <mxCell id="1Xf7fbBkaFYpPVQfP7VX-111" value="LastName" style="ellipse;whiteSpace=wrap;html=1;align=center;fillColor=#1ba1e2;fontColor=#ffffff;strokeColor=#006EAF;" vertex="1" parent="1">
          <mxGeometry x="572.5" y="630" width="100" height="40" as="geometry" />
        </mxCell>
        <mxCell id="1Xf7fbBkaFYpPVQfP7VX-112" value="Email" style="ellipse;whiteSpace=wrap;html=1;align=center;fillColor=#1ba1e2;strokeColor=#006EAF;fontColor=#ffffff;" vertex="1" parent="1">
          <mxGeometry x="400" y="620" width="100" height="40" as="geometry" />
        </mxCell>
        <mxCell id="1Xf7fbBkaFYpPVQfP7VX-113" value="Phone" style="ellipse;whiteSpace=wrap;html=1;align=center;fillColor=#1ba1e2;fontColor=#ffffff;strokeColor=#006EAF;" vertex="1" parent="1">
          <mxGeometry x="730" y="620" width="100" height="40" as="geometry" />
        </mxCell>
        <mxCell id="1Xf7fbBkaFYpPVQfP7VX-114" value="DateAdded" style="ellipse;whiteSpace=wrap;html=1;align=center;fillColor=#1ba1e2;fontColor=#ffffff;strokeColor=#006EAF;" vertex="1" parent="1">
          <mxGeometry x="730" y="540" width="100" height="40" as="geometry" />
        </mxCell>
        <mxCell id="1Xf7fbBkaFYpPVQfP7VX-115" value="Id&lt;br&gt;" style="ellipse;whiteSpace=wrap;html=1;align=center;fillColor=#1ba1e2;fontColor=#ffffff;strokeColor=#006EAF;" vertex="1" parent="1">
          <mxGeometry x="672.5" y="670" width="100" height="40" as="geometry" />
        </mxCell>
        <mxCell id="1Xf7fbBkaFYpPVQfP7VX-129" value="" style="endArrow=none;html=1;rounded=0;exitX=0.5;exitY=0;exitDx=0;exitDy=0;entryX=0.25;entryY=1;entryDx=0;entryDy=0;" edge="1" parent="1" source="1Xf7fbBkaFYpPVQfP7VX-110" target="1Xf7fbBkaFYpPVQfP7VX-76">
          <mxGeometry relative="1" as="geometry">
            <mxPoint x="420" y="640" as="sourcePoint" />
            <mxPoint x="580" y="640" as="targetPoint" />
          </mxGeometry>
        </mxCell>
        <mxCell id="1Xf7fbBkaFYpPVQfP7VX-131" value="" style="endArrow=none;html=1;rounded=0;entryX=0.5;entryY=0;entryDx=0;entryDy=0;exitX=0.5;exitY=1;exitDx=0;exitDy=0;" edge="1" parent="1" source="1Xf7fbBkaFYpPVQfP7VX-76" target="1Xf7fbBkaFYpPVQfP7VX-111">
          <mxGeometry relative="1" as="geometry">
            <mxPoint x="430" y="650" as="sourcePoint" />
            <mxPoint x="590" y="650" as="targetPoint" />
          </mxGeometry>
        </mxCell>
        <mxCell id="1Xf7fbBkaFYpPVQfP7VX-132" value="" style="endArrow=none;html=1;rounded=0;entryX=0.75;entryY=1;entryDx=0;entryDy=0;exitX=0.5;exitY=0;exitDx=0;exitDy=0;" edge="1" parent="1" source="1Xf7fbBkaFYpPVQfP7VX-115" target="1Xf7fbBkaFYpPVQfP7VX-76">
          <mxGeometry relative="1" as="geometry">
            <mxPoint x="440" y="660" as="sourcePoint" />
            <mxPoint x="600" y="660" as="targetPoint" />
          </mxGeometry>
        </mxCell>
        <mxCell id="1Xf7fbBkaFYpPVQfP7VX-133" value="" style="endArrow=none;html=1;rounded=0;entryX=1;entryY=1;entryDx=0;entryDy=0;exitX=0;exitY=0;exitDx=0;exitDy=0;" edge="1" parent="1" source="1Xf7fbBkaFYpPVQfP7VX-113" target="1Xf7fbBkaFYpPVQfP7VX-76">
          <mxGeometry relative="1" as="geometry">
            <mxPoint x="450" y="670" as="sourcePoint" />
            <mxPoint x="610" y="670" as="targetPoint" />
          </mxGeometry>
        </mxCell>
        <mxCell id="1Xf7fbBkaFYpPVQfP7VX-135" value="" style="endArrow=none;html=1;rounded=0;entryX=0;entryY=1;entryDx=0;entryDy=0;exitX=1;exitY=0;exitDx=0;exitDy=0;" edge="1" parent="1" source="1Xf7fbBkaFYpPVQfP7VX-112" target="1Xf7fbBkaFYpPVQfP7VX-76">
          <mxGeometry relative="1" as="geometry">
            <mxPoint x="460" y="680" as="sourcePoint" />
            <mxPoint x="620" y="680" as="targetPoint" />
          </mxGeometry>
        </mxCell>
        <mxCell id="1Xf7fbBkaFYpPVQfP7VX-136" value="" style="endArrow=none;html=1;rounded=0;exitX=1;exitY=0.5;exitDx=0;exitDy=0;entryX=0;entryY=0.5;entryDx=0;entryDy=0;" edge="1" parent="1" source="1Xf7fbBkaFYpPVQfP7VX-76" target="1Xf7fbBkaFYpPVQfP7VX-114">
          <mxGeometry relative="1" as="geometry">
            <mxPoint x="470" y="690" as="sourcePoint" />
            <mxPoint x="630" y="690" as="targetPoint" />
          </mxGeometry>
        </mxCell>
        <mxCell id="1Xf7fbBkaFYpPVQfP7VX-137" value="" style="endArrow=none;html=1;rounded=0;entryX=0;entryY=1;entryDx=0;entryDy=0;exitX=1;exitY=0;exitDx=0;exitDy=0;" edge="1" parent="1" source="1Xf7fbBkaFYpPVQfP7VX-76" target="1Xf7fbBkaFYpPVQfP7VX-91">
          <mxGeometry relative="1" as="geometry">
            <mxPoint x="480" y="700" as="sourcePoint" />
            <mxPoint x="640" y="700" as="targetPoint" />
          </mxGeometry>
        </mxCell>
        <mxCell id="1Xf7fbBkaFYpPVQfP7VX-141" value="FirstName" style="ellipse;whiteSpace=wrap;html=1;align=center;fillColor=#1ba1e2;fontColor=#ffffff;strokeColor=#006EAF;" vertex="1" parent="1">
          <mxGeometry x="90" y="430" width="100" height="40" as="geometry" />
        </mxCell>
        <mxCell id="1Xf7fbBkaFYpPVQfP7VX-142" value="UserID" style="ellipse;whiteSpace=wrap;html=1;align=center;fontStyle=4;fillColor=#1ba1e2;strokeColor=#006EAF;fontColor=#ffffff;" vertex="1" parent="1">
          <mxGeometry x="87.5" y="630" width="100" height="40" as="geometry" />
        </mxCell>
        <mxCell id="1Xf7fbBkaFYpPVQfP7VX-143" value="LastName" style="ellipse;whiteSpace=wrap;html=1;align=center;fillColor=#1ba1e2;fontColor=#ffffff;strokeColor=#006EAF;" vertex="1" parent="1">
          <mxGeometry x="10" y="480" width="100" height="40" as="geometry" />
        </mxCell>
        <mxCell id="1Xf7fbBkaFYpPVQfP7VX-144" value="Email" style="ellipse;whiteSpace=wrap;html=1;align=center;fillColor=#1ba1e2;strokeColor=#006EAF;fontColor=#ffffff;" vertex="1" parent="1">
          <mxGeometry x="50" y="537.0699999999999" width="100" height="40" as="geometry" />
        </mxCell>
        <mxCell id="1Xf7fbBkaFYpPVQfP7VX-149" value="Phone" style="ellipse;whiteSpace=wrap;html=1;align=center;fillColor=#1ba1e2;fontColor=#ffffff;strokeColor=#006EAF;" vertex="1" parent="1">
          <mxGeometry x="10" y="590" width="100" height="40" as="geometry" />
        </mxCell>
        <mxCell id="1Xf7fbBkaFYpPVQfP7VX-154" style="edgeStyle=orthogonalEdgeStyle;rounded=0;orthogonalLoop=1;jettySize=auto;html=1;exitX=0.5;exitY=1;exitDx=0;exitDy=0;" edge="1" parent="1" source="1Xf7fbBkaFYpPVQfP7VX-144" target="1Xf7fbBkaFYpPVQfP7VX-144">
          <mxGeometry relative="1" as="geometry" />
        </mxCell>
        <mxCell id="1Xf7fbBkaFYpPVQfP7VX-156" value="" style="endArrow=none;html=1;rounded=0;entryX=0;entryY=0;entryDx=0;entryDy=0;exitX=1;exitY=0.5;exitDx=0;exitDy=0;" edge="1" parent="1" source="1Xf7fbBkaFYpPVQfP7VX-143" target="1Xf7fbBkaFYpPVQfP7VX-104">
          <mxGeometry relative="1" as="geometry">
            <mxPoint x="270" y="470" as="sourcePoint" />
            <mxPoint x="430" y="470" as="targetPoint" />
          </mxGeometry>
        </mxCell>
        <mxCell id="1Xf7fbBkaFYpPVQfP7VX-157" value="" style="endArrow=none;html=1;rounded=0;entryX=1;entryY=1;entryDx=0;entryDy=0;exitX=0.362;exitY=0.173;exitDx=0;exitDy=0;exitPerimeter=0;" edge="1" parent="1" source="1Xf7fbBkaFYpPVQfP7VX-104" target="1Xf7fbBkaFYpPVQfP7VX-141">
          <mxGeometry relative="1" as="geometry">
            <mxPoint x="280" y="480" as="sourcePoint" />
            <mxPoint x="440" y="480" as="targetPoint" />
          </mxGeometry>
        </mxCell>
        <mxCell id="1Xf7fbBkaFYpPVQfP7VX-158" value="" style="endArrow=none;html=1;rounded=0;exitX=1;exitY=0.5;exitDx=0;exitDy=0;entryX=0;entryY=0.5;entryDx=0;entryDy=0;" edge="1" parent="1" source="1Xf7fbBkaFYpPVQfP7VX-144" target="1Xf7fbBkaFYpPVQfP7VX-104">
          <mxGeometry relative="1" as="geometry">
            <mxPoint x="290" y="490" as="sourcePoint" />
            <mxPoint x="450" y="490" as="targetPoint" />
          </mxGeometry>
        </mxCell>
        <mxCell id="1Xf7fbBkaFYpPVQfP7VX-160" value="" style="endArrow=none;html=1;rounded=0;exitX=1;exitY=0.5;exitDx=0;exitDy=0;entryX=0;entryY=1;entryDx=0;entryDy=0;" edge="1" parent="1" source="1Xf7fbBkaFYpPVQfP7VX-149" target="1Xf7fbBkaFYpPVQfP7VX-104">
          <mxGeometry relative="1" as="geometry">
            <mxPoint x="300" y="500" as="sourcePoint" />
            <mxPoint x="460" y="500" as="targetPoint" />
          </mxGeometry>
        </mxCell>
        <mxCell id="1Xf7fbBkaFYpPVQfP7VX-161" value="" style="endArrow=none;html=1;rounded=0;exitX=1;exitY=0;exitDx=0;exitDy=0;entryX=0.327;entryY=0.879;entryDx=0;entryDy=0;entryPerimeter=0;" edge="1" parent="1" source="1Xf7fbBkaFYpPVQfP7VX-142" target="1Xf7fbBkaFYpPVQfP7VX-104">
          <mxGeometry relative="1" as="geometry">
            <mxPoint x="310" y="510" as="sourcePoint" />
            <mxPoint x="470" y="510" as="targetPoint" />
          </mxGeometry>
        </mxCell>
        <mxCell id="1Xf7fbBkaFYpPVQfP7VX-171" value="Contact Table" style="whiteSpace=wrap;html=1;align=center;fillColor=#f0a30a;strokeColor=#BD7000;fontColor=#000000;" vertex="1" parent="1">
          <mxGeometry x="300" y="710" width="100" height="40" as="geometry" />
        </mxCell>
      </root>
    </mxGraphModel>
  </diagram>
</mxfile>
